<?xml version="1.0" standalone="no"?><!DOCTYPE svg PUBLIC "-//W3C//DTD SVG 1.1//EN" "http://www.w3.org/Graphics/SVG/1.1/DTD/svg11.dtd"><svg t="1532413322055" class="icon" style="" viewBox="0 0 1025 1024" version="1.1" xmlns="http://www.w3.org/2000/svg" p-id="3036" xmlns:xlink="http://www.w3.org/1999/xlink" width="200.1953125" height="200"><defs><style type="text/css"></style></defs><path d="M525.03232 723.2c-160-44.8-128-134.4-128-134.4 115.2 19.2 192-25.6 192-25.6C537.83232 524.8 550.63232 531.2 518.63232 326.4S320.23232 160 320.23232 160 160.23232 128 128.23232 326.4C89.83232 531.2 109.03232 524.8 57.83232 563.2c0 0 76.8 44.8 192 25.6 0 0 32 89.6-128 134.4 0 0-128 19.2-121.6 140.8l640 0C653.03232 742.4 525.03232 723.2 525.03232 723.2zM921.83232 742.4c-140.8-38.4-115.2-115.2-115.2-115.2 102.4 19.2 166.4-25.6 166.4-25.6-44.8-32-25.6-25.6-57.6-198.4C883.43232 230.4 749.03232 256 749.03232 256S608.23232 230.4 576.23232 403.2C569.83232 454.4 563.43232 486.4 563.43232 512c6.4 12.8 25.6 38.4 57.6 51.2 0 0-44.8 25.6-96 38.4 0 0 0 0-6.4 6.4 0 0 64 38.4 166.4 25.6 0 0 19.2 76.8-76.8 102.4 32 12.8 64 57.6 64 134.4L1024.23232 870.4C1030.63232 761.6 921.83232 742.4 921.83232 742.4z" p-id="3037"></path></svg>