<?xml version="1.0" standalone="no"?><!DOCTYPE svg PUBLIC "-//W3C//DTD SVG 1.1//EN" "http://www.w3.org/Graphics/SVG/1.1/DTD/svg11.dtd"><svg t="1532414642902" class="icon" style="" viewBox="0 0 1024 1024" version="1.1" xmlns="http://www.w3.org/2000/svg" p-id="4164" xmlns:xlink="http://www.w3.org/1999/xlink" width="200" height="200"><defs><style type="text/css"></style></defs><path d="M728.35072 846.08512H295.64928c-29.86496 0-54.08256 24.91904-54.08256 55.67488S265.7792 957.44 295.64928 957.44h432.70144c29.88032 0 54.08768-24.92416 54.08768-55.68s-24.20736-55.67488-54.08768-55.67488zM782.4384 66.56H241.5616c-59.74528 0-108.18048 49.8688-108.18048 111.36512v501.10464c0 61.51168 48.4352 111.37024 108.18048 111.37024h540.8768c59.74528 0 108.18048-49.85856 108.18048-111.37024V177.92512c0-61.49632-48.4352-111.36512-108.18048-111.36512zM333.824 244.74112c36.90496 0 66.816 29.92128 66.816 66.816S370.72896 378.368 333.824 378.368c-36.89984 0-66.81088-29.90592-66.81088-66.81088 0-36.89472 29.91104-66.816 66.81088-66.816z m378.61888 356.34176H311.55712a44.53888 44.53888 0 1 1 0-89.07776h400.88576a44.53376 44.53376 0 0 1 44.53888 44.53888 44.52352 44.52352 0 0 1-44.53888 44.53888zM690.176 378.368c-36.89984 0-66.82112-29.90592-66.82112-66.81088 0-36.89984 29.92128-66.816 66.82112-66.816 36.90496 0 66.81088 29.92128 66.81088 66.816S727.08096 378.368 690.176 378.368z" fill="#333333" p-id="4165"></path></svg>