<?xml version="1.0" standalone="no"?><!DOCTYPE svg PUBLIC "-//W3C//DTD SVG 1.1//EN" "http://www.w3.org/Graphics/SVG/1.1/DTD/svg11.dtd"><svg t="1532415359525" class="icon" style="" viewBox="0 0 1024 1024" version="1.1" xmlns="http://www.w3.org/2000/svg" p-id="4618" xmlns:xlink="http://www.w3.org/1999/xlink" width="200" height="200"><defs><style type="text/css"></style></defs><path d="M725.611076 344.490915 511.817851 527.742543 298.024627 344.490915c-6.223748 5.835915-10.16757 14.07353-10.16757 23.279193l0 287.948131c0 17.668405 14.325263 31.994692 31.994692 31.994692l383.932206 0c17.669428 0 31.993668-14.326287 31.993668-31.994692l0-287.948131C735.777623 358.563422 731.835847 350.32683 725.611076 344.490915z" p-id="4619"></path><path d="M687.786609 335.774393 335.849094 335.774393 511.817851 488.747413Z" p-id="4620"></path><path d="M511.706311 0.060375c-282.59624 0-511.684822 229.089605-511.684822 511.684822s229.089605 511.684822 511.684822 511.684822 511.684822-229.089605 511.684822-511.684822S794.301528 0.060375 511.706311 0.060375zM767.772314 655.719262c0 35.338856-28.64848 63.989383-63.98836 63.989383L319.851749 719.708646c-35.33988 0-63.98836-28.650527-63.98836-63.989383l0-287.948131c0-35.341926 28.64848-63.98836 63.98836-63.98836l383.932206 0c35.33988 0 63.98836 28.646434 63.98836 63.98836L767.772314 655.719262z" p-id="4621"></path></svg>